<svg width="46" height="11" viewBox="0 0 46 11" fill="none" xmlns="http://www.w3.org/2000/svg">
<path d="M0.431389 0.10077C0.589683 0.191687 0.906304 0.372089 1.30614 0.639561C1.78234 0.953094 2.23147 1.30592 2.64884 1.69434C3.10648 2.12776 3.53802 2.63935 3.9702 3.12231C4.40239 3.60527 4.83456 4.05745 5.22254 4.46925C5.61052 4.88106 5.95647 5.25183 6.5072 5.74749C7.05793 6.24316 7.81563 6.86163 8.42209 7.29842C8.92915 7.66973 9.47085 7.99124 10.0397 8.25848C10.6072 8.53192 11.1888 8.77519 11.782 8.98728C12.237 9.15052 12.7086 9.26322 13.1882 9.32334C13.7007 9.38758 14.2169 9.41576 14.7333 9.4077C15.3155 9.40156 15.8956 9.33723 16.465 9.21567C17.1085 9.07026 17.7356 8.86021 18.3368 8.58871C19.0743 8.26097 19.7876 7.88144 20.4715 7.45299C21.2512 6.97097 22.1109 6.37336 22.9915 5.79913C23.8721 5.2249 24.7758 4.67338 25.4141 4.27191C26.0524 3.87045 26.4268 3.62049 27.0788 3.72258C27.9846 3.96763 28.8617 4.30881 29.6951 4.74032C30.7305 5.20257 31.8702 5.67291 32.975 6.10524C34.0798 6.53756 35.1489 6.934 36.2033 7.28572C37.2577 7.63745 38.3054 7.93676 39.4063 8.19361C40.5072 8.45047 41.6594 8.65408 42.6791 8.7967C43.513 8.86427 44.3382 9.01338 45.143 9.24188C45.3435 9.29699 45.5248 9.40641 45.667 9.55805C45.8092 9.70969 45.9068 9.89768 45.949 10.1013C45.9284 10.3141 45.6213 10.315 44.9461 10.2883C43.9957 10.2576 43.0478 10.1731 42.107 10.0351C40.9885 9.86229 39.7946 9.57112 38.6201 9.27395C37.4457 8.97677 36.29 8.67287 35.0955 8.2829C33.901 7.89292 32.6683 7.41762 31.3132 6.84505C30.0803 6.25165 28.7932 5.77808 27.4696 5.43087C27.0443 5.36833 26.6105 5.39682 26.1971 5.51444C25.7836 5.63207 25.3998 5.83616 25.0711 6.1132C24.2347 6.6326 23.1154 7.34532 22.111 7.97903C21.1067 8.61274 20.2185 9.17033 19.391 9.58183C18.6425 9.95586 17.8553 10.2468 17.0434 10.4493C16.3425 10.6329 15.6235 10.7393 14.8994 10.7666C14.2879 10.7731 13.6775 10.7117 13.0796 10.5837C12.3973 10.4576 11.7265 10.276 11.0738 10.0407C10.2043 9.72468 9.36525 9.33023 8.5671 8.86227C7.76068 8.37345 6.98737 7.832 6.25219 7.24144C5.62703 6.76396 5.03941 6.23924 4.4945 5.67188C3.93506 5.08653 3.35024 4.35744 2.84346 3.78618C2.42335 3.28509 1.94185 2.83888 1.41031 2.45804C0.923018 2.21977 0.492149 1.88031 0.146448 1.46232C-0.054366 1.06764 0.109365 0.538744 0.194726 0.277957C0.280088 0.01717 0.276592 0.0135116 0.434886 0.104428L0.431389 0.10077Z" fill="white" stroke="white" stroke-width="0.100011"/>
</svg>
