<svg width="41" height="56" viewBox="0 0 41 56" fill="none" xmlns="http://www.w3.org/2000/svg">
<path d="M1.22695 0.0554207C1.96033 0.0422704 3.42609 0.0139441 3.90456 0.621895C4.38303 1.22985 3.87725 2.47509 4.20803 4.61455C4.83501 7.51454 5.90716 10.3 7.38637 12.8719C9.08164 15.9191 10.988 18.844 13.0916 21.625C14.6985 23.8667 16.5073 25.9566 18.4954 27.8684C20.5065 29.6683 22.6148 31.3568 24.8106 32.9262C27.1048 34.6388 29.5568 36.4849 31.4545 37.9527C33.0753 39.1356 34.5882 40.4599 35.9752 41.9099C37.2743 43.3169 38.3777 44.8926 39.2557 46.5945C40.0139 48.1509 40.4518 49.8436 40.5434 51.5724C40.7083 53.5156 40.6942 55.9494 40.3856 55.9494C40.0771 55.9494 39.4752 53.5166 38.1865 51.1738C36.6332 48.5684 34.68 46.2232 32.3983 44.2244C29.8694 41.8684 26.7892 39.4073 24.1035 37.2749C21.4178 35.1426 19.1306 33.3389 17.3017 31.6395C15.6198 30.0381 14.0368 28.3358 12.5615 26.5422C10.8959 24.657 9.33411 22.6826 7.88304 20.6276C6.5645 18.6117 5.36149 16.5224 4.27985 14.3701C3.23895 12.3915 2.29314 10.6151 1.54053 8.94505C0.808231 7.46607 0.315856 5.88001 0.0818579 4.24633C-0.00354884 3.07421 0.0864603 1.89592 0.348911 0.75037C0.485472 0.0726214 0.485473 0.0716041 1.21886 0.0584537L1.22695 0.0554207Z" fill="white" stroke="#F7F7F7" stroke-width="0.1"/>
</svg>
