<svg width="36" height="31" viewBox="0 0 36 31" fill="none" xmlns="http://www.w3.org/2000/svg">
<path d="M0.0932847 27.7881C2.99212 27.2451 5.8407 26.4617 8.60953 25.446C11.7439 24.1885 14.7223 22.5729 17.4856 20.6314C20.2311 18.6984 22.7838 16.5052 25.1083 14.0822C27.1613 11.9394 29.1043 9.69382 30.9297 7.35412C32.3732 5.5144 33.1788 4.35498 33.9066 3.2744C34.6344 2.19382 35.2864 1.19209 35.9374 0.189346C35.7771 2.71289 35.1995 5.19239 34.228 7.52697C33.1677 9.63152 31.3714 11.2216 29.3841 13.1694C27.3968 15.1173 25.2185 17.422 23.1008 19.3608C21.2376 21.0698 19.2547 22.6437 17.1672 24.0702C15.6453 25.1091 14.0535 26.0416 12.4032 26.8611C10.8191 27.67 9.18692 28.3809 7.51582 28.9899C5.82268 29.5964 4.07899 30.0594 2.33834 30.5244L0.0932847 27.7881Z" fill="white" stroke="white" stroke-width="0.1"/>
</svg>
