<svg width="83" height="86" viewBox="0 0 83 86" fill="none" xmlns="http://www.w3.org/2000/svg">
<path d="M41.5 85.1001C64.3922 85.1001 82.95 66.061 82.95 42.5751C82.95 19.0891 64.3922 0.0500384 41.5 0.0500384C18.6079 0.0500384 0.0500995 19.0891 0.0500995 42.5751C0.0500995 66.061 18.6079 85.1001 41.5 85.1001Z" fill="white" stroke="white" stroke-width="0.1"/>
<path d="M41.5 82.7587C63.4391 82.7587 81.2242 64.7683 81.2242 42.5761C81.2242 20.3838 63.4391 2.39341 41.5 2.39341C19.561 2.39341 1.77584 20.3838 1.77584 42.5761C1.77584 64.7683 19.561 82.7587 41.5 82.7587Z" fill="#183B4E" stroke="white" stroke-width="0.1"/>
<path d="M25.1905 5.93599C25.2115 5.92598 25.2536 5.90696 26.4328 5.49955C28.4258 4.75259 30.5261 4.33144 32.6531 4.25229C35.6236 4.3357 38.567 4.84334 41.3939 5.75981C44.112 6.53123 46.7614 7.52665 49.3149 8.73583C51.5968 9.85474 53.7897 11.1465 55.8746 12.5997C57.6538 13.8065 59.3543 15.1255 60.9657 16.5487C62.3671 17.807 63.4312 18.9792 64.0488 19.6459C64.6665 20.3125 64.8346 20.4727 65.0038 20.6329L63.9648 23.5798C63.169 22.6479 62.3741 21.716 61.4052 20.6879C60.3321 19.545 59.1979 18.461 58.0077 17.4406C56.7214 16.3395 55.289 15.2704 54.0037 14.3785C52.7815 13.523 51.5166 12.7302 50.2138 12.0031C48.7453 11.1716 47.2344 10.4171 45.6873 9.74284C44.2688 9.13373 42.8045 8.63768 41.3078 8.25934C39.838 7.91088 38.3512 7.63824 36.8533 7.44252C35.0795 7.18225 32.8343 6.87094 30.9714 6.70877C29.1085 6.54661 27.631 6.53059 26.643 6.46753C25.976 6.43269 25.3136 6.3372 24.664 6.18224L25.0884 5.98204L25.1945 5.93299L25.1905 5.93599Z" fill="white" stroke="white" stroke-width="0.1"/>
<path d="M9.11225 19.3606L11.1753 16.6228C13.9782 16.3756 16.781 16.1293 19.4107 16.0602C21.8671 15.9909 24.3255 16.0912 26.7681 16.3605C28.9098 16.5992 31.0305 16.998 33.1125 17.5537C35.1279 18.083 37.0978 18.7722 39.0035 19.6148C40.9159 20.4795 42.7667 21.4741 44.5431 22.5918C46.2481 23.6477 47.8759 24.8235 49.414 26.1104C51.0006 27.4387 52.6103 28.9823 53.9246 30.3257C55.2389 31.669 56.2589 32.8112 57.28 33.9543L55.2029 35.8182C54.1647 34.3009 53.0186 32.8604 51.7734 31.5079C50.2243 29.9126 48.5362 28.4585 46.7293 27.1625C44.8145 25.776 42.8012 24.5311 40.7052 23.4377C38.6394 22.345 36.4877 21.423 34.2717 20.6809C32.1907 20.0048 30.0601 19.492 27.8993 19.1474C26.0671 18.8431 24.2155 18.6711 22.3586 18.6328C20.4973 18.6149 18.6367 18.7152 16.788 18.9331C14.2457 19.288 11.6783 19.431 9.11225 19.3606Z" fill="white" stroke="white" stroke-width="0.1"/>
<path d="M39.1947 60.3611C41.9685 59.6932 44.6943 58.8401 47.3539 57.8075C50.545 56.4914 53.5737 54.812 56.3801 52.8024C59.5535 50.5351 62.5267 47.9999 65.2671 45.2247C67.579 42.8917 69.4981 40.1999 70.9498 37.2537C72.7687 33.7862 74.9369 28.8952 77.105 24.0043L78.8778 26.6219C77.7067 29.4328 76.5355 32.2446 75.1741 35.0555C73.8509 37.8423 72.326 40.5288 70.6115 43.0936C69.05 45.376 67.2585 47.4923 65.2651 49.409C63.3721 51.2278 61.3534 52.911 59.224 54.4461C57.3556 55.8014 55.4041 57.0385 53.381 58.1498C51.4052 59.2454 49.3516 60.1946 47.2368 60.9897C44.9865 61.8355 42.446 62.5913 39.9054 63.3381L39.1947 60.3611Z" fill="white" stroke="white" stroke-width="0.1"/>
<path d="M4.71684 31.0214C6.04418 30.8021 8.69887 30.3627 11.4527 30.1485C14.2911 29.9092 17.1472 29.9764 19.9713 30.3487C22.8357 30.7531 25.6464 31.4742 28.3518 32.4989C30.6525 33.3508 32.8181 34.5308 34.7813 36.0024C36.4291 37.2815 37.9747 38.6872 39.4039 40.2067C40.4049 41.2637 40.6902 41.6551 40.8454 42.3418C41.016 43.3294 41.0255 44.3382 40.8734 45.3289C40.7193 46.6472 40.3819 48.3009 40.1477 50.4761C39.9053 52.7798 39.7971 55.0957 39.8234 57.4121C39.8329 59.3379 40.1367 61.2509 40.7243 63.0848C41.511 65.7284 42.5631 68.2857 43.8644 70.7175C45.1506 73.0319 46.7321 75.1693 48.5692 77.076C50.1618 78.7276 51.6353 79.8668 51.8535 80.5745C52.0717 81.2822 51.0337 81.5565 49.9786 81.2372C48.6647 80.6787 47.509 79.8043 46.6142 78.6916C45.2139 77.1936 43.9289 75.5918 42.7703 73.8998C41.6421 72.2428 40.6514 70.4962 39.8083 68.6775C39.0655 67.0985 38.502 65.4411 38.1286 63.7365C37.7204 61.8156 37.4322 59.8713 37.2658 57.9146C37.1215 56.3604 37.0824 54.7983 37.1487 53.2389C37.2106 51.7654 37.3748 50.2981 37.6401 48.8474C38.0423 47.255 38.2265 45.6154 38.1877 43.9735C37.9206 42.655 37.1799 41.4799 36.1056 40.6701C34.8781 39.4958 33.5739 38.4043 32.2016 37.4028C30.8489 36.4258 29.4039 35.5833 27.8873 34.8873C26.4598 34.2417 24.9703 33.7429 23.4418 33.3988C21.7785 33.0087 20.0873 32.749 18.3837 32.622C16.9165 32.5467 15.4464 32.5467 13.9792 32.622C12.6549 32.662 11.4577 32.672 10.3856 32.7671C9.27498 32.8769 8.17392 33.068 7.09124 33.3387C5.81395 33.639 4.20432 34.0474 2.59369 34.4599L3.25736 31.7701C3.39049 31.2326 3.39049 31.2326 4.71784 31.0124L4.71684 31.0214Z" fill="white" stroke="white" stroke-width="0.1"/>
<path d="M45.8524 73.8277C48.7231 73.29 51.544 72.5142 54.286 71.5083C57.3898 70.263 60.3394 68.6631 63.0759 66.7405C65.7947 64.8263 68.3226 62.6544 70.6245 60.255C72.6575 58.133 74.5816 55.9092 76.3893 53.5922C77.8188 51.7704 78.6166 50.6222 79.3373 49.5521C80.058 48.482 80.7037 47.49 81.3483 46.497C81.1896 48.9961 80.6176 51.4515 79.6556 53.7634C78.6056 55.8475 76.8268 57.4221 74.8588 59.351C72.8908 61.28 70.7336 63.5623 68.6365 65.4822C66.7913 67.1747 64.8277 68.7332 62.7605 70.146C61.2534 71.1747 59.6771 72.0981 58.0428 72.9098C56.4741 73.7107 54.8577 74.4148 53.2029 75.0179C51.5262 75.6185 49.7994 76.077 48.0757 76.5374L45.8524 73.8277Z" fill="white" stroke="white" stroke-width="0.1"/>
<path d="M11.1894 33.573C10.852 34.4428 10.1764 36.1826 9.58776 38.0995C9.01405 39.9737 8.54617 41.8786 8.18634 43.8053C7.91368 45.2623 7.7587 46.7389 7.72288 48.2208C7.67873 49.8071 7.71949 51.3946 7.845 52.9766C7.98118 54.8489 8.23899 56.7104 8.61678 58.5492C9.03633 60.4809 9.63313 62.3698 10.3996 64.1919C11.2464 66.267 12.3966 68.6965 13.5468 71.1169C12.0662 69.7974 10.6831 68.3722 9.40858 66.8526C8.54523 65.7198 7.87705 64.4507 7.43158 63.0978C6.94603 61.7423 6.56978 60.3502 6.30644 58.9346C5.89242 56.8021 5.6033 54.6473 5.44057 52.4811C5.2791 50.2354 5.2791 47.981 5.44057 45.7353C5.58122 43.848 5.86432 41.9741 6.28742 40.1296C6.68082 38.3928 7.16732 36.7261 7.55671 35.555C7.9461 34.3838 8.2384 33.7151 8.88505 33.3237C9.55748 32.9991 10.2869 32.809 11.0322 32.7641C11.5327 32.7081 11.5327 32.7081 11.1944 33.578L11.1894 33.573Z" fill="white" stroke="white" stroke-width="0.1"/>
<path d="M25.7762 34.653C25.5539 35.1676 25.1085 36.1976 24.621 37.6841C24.1335 39.1706 23.604 41.1116 23.1605 42.9404C22.7264 44.641 22.3971 46.3667 22.1745 48.1077C22.0096 49.6849 21.9565 51.2717 22.0154 52.8565C22.0405 54.5815 22.188 56.3025 22.4568 58.0067C22.8175 60.1141 23.3351 62.1916 24.0054 64.222C24.7086 66.3917 25.5625 68.5097 26.561 70.5604C27.4747 72.4187 28.5439 74.1965 29.7572 75.8747C30.9584 77.5524 32.3378 79.2221 33.3058 80.3693C34.2738 81.5165 34.8874 82.2032 34.5921 82.5465C34.2968 82.8898 33.0906 82.8898 32.0335 82.2602C30.7859 81.3062 29.7268 80.1283 28.9103 78.7867C27.5548 76.984 26.3064 75.1032 25.1716 73.154C24.0301 71.0693 23.0415 68.9044 22.2136 66.6764C21.5418 64.935 20.9828 63.1522 20.5399 61.339C20.12 59.6468 19.817 57.9277 19.633 56.1938C19.4973 54.6294 19.4639 53.0578 19.5329 51.4891C19.5789 49.8734 19.659 48.1016 19.8832 46.2448C20.1181 44.3293 20.4829 42.432 20.9753 40.566C21.4758 38.6861 22.0934 36.8693 22.5259 35.6871C22.9583 34.5049 23.2006 33.9563 23.7471 33.8042C24.3634 33.732 24.988 33.805 25.571 34.0174C25.9964 34.1395 25.9964 34.1395 25.7712 34.654L25.7762 34.653Z" fill="white" stroke="white" stroke-width="0.1"/>
<path d="M41.1557 41.4199C42.4413 41.3628 43.7146 41.1438 44.9455 40.7682C47.2021 40.0242 49.3406 38.9611 51.2959 37.611C53.8154 35.9165 56.1782 33.9999 58.3561 31.8842C59.7388 30.5488 60.9222 29.0213 61.8696 27.3487C62.6035 26.0651 63.2717 24.7451 63.8716 23.3937C64.5003 22.0043 65.1489 20.4737 65.6514 19.1624C66.1069 18.0094 66.4848 16.8272 66.7826 15.6238C67.0559 14.4896 67.244 13.3125 67.4332 12.1353L69.9638 12.821C68.9848 16.2484 68.0048 19.6769 67.0258 22.3406C66.2194 24.5961 65.1677 26.7562 63.8897 28.7821C62.7086 30.6552 61.4019 32.4461 59.9787 34.1425C58.7693 35.6211 57.4241 36.9831 55.9606 38.2106C54.7221 39.1925 53.3958 40.0584 51.9986 40.7973C50.6698 41.5553 49.2843 42.2092 47.8544 42.7532C46.3669 43.2988 44.7263 43.7102 43.5371 44.1166C42.3479 44.523 41.6111 44.9264 41.1757 44.483C40.7708 43.7557 40.5533 42.939 40.543 42.1066C40.477 41.4619 40.477 41.4619 41.1567 41.4229L41.1557 41.4199Z" fill="white" stroke="white" stroke-width="0.1"/>
</svg>
